<svg width="720" height="900" viewBox="0 0 720 900" fill="none" xmlns="http://www.w3.org/2000/svg">
<g clip-path="url(#clip0_2_30)">
<rect width="720" height="900" fill="url(#paint0_linear_2_30)"/>
<circle cx="541.5" cy="717.5" r="467.5" fill="url(#paint1_linear_2_30)" fill-opacity="0.03"/>
<circle cx="333.5" cy="533.5" r="467.5" fill="url(#paint2_linear_2_30)" fill-opacity="0.02"/>
<circle cx="296" cy="472" r="545" fill="url(#paint3_linear_2_30)" fill-opacity="0.03"/>
<circle cx="632" cy="784" r="350" fill="url(#paint4_linear_2_30)" fill-opacity="0.01"/>
<rect x="167.495" y="296.004" width="82.8842" height="82.8842" rx="18" fill="url(#paint5_linear_2_30)" fill-opacity="0.4"/>
<g clip-path="url(#clip1_2_30)">
<path d="M226.74 328.682C226.167 328.483 225.573 328.294 224.962 328.116C225.062 327.702 225.154 327.292 225.236 326.89C226.583 320.285 225.703 314.964 222.696 313.213C219.814 311.533 215.1 313.284 210.338 317.471C209.88 317.874 209.421 318.3 208.962 318.747C208.657 318.451 208.351 318.166 208.047 317.893C203.057 313.415 198.055 311.529 195.052 313.286C192.172 314.97 191.319 319.972 192.532 326.232C192.649 326.836 192.785 327.454 192.94 328.082C192.232 328.285 191.549 328.501 190.895 328.731C185.045 330.792 181.309 334.023 181.309 337.373C181.309 340.834 185.32 344.305 191.413 346.409C191.894 346.575 192.393 346.732 192.907 346.881C192.74 347.56 192.595 348.226 192.473 348.875C191.317 355.025 192.22 359.909 195.092 361.583C198.059 363.312 203.038 361.535 207.886 357.253C208.269 356.914 208.654 356.555 209.039 356.179C209.538 356.665 210.037 357.125 210.533 357.556C215.229 361.64 219.867 363.289 222.736 361.61C225.7 359.876 226.663 354.63 225.413 348.246C225.317 347.759 225.206 347.261 225.081 346.754C225.431 346.649 225.774 346.542 226.109 346.429C232.443 344.309 236.565 340.88 236.565 337.373C236.565 334.011 232.708 330.759 226.74 328.682ZM225.367 344.165C225.064 344.266 224.754 344.364 224.438 344.459C223.739 342.222 222.795 339.843 221.64 337.385C222.742 334.986 223.65 332.637 224.33 330.414C224.895 330.58 225.443 330.754 225.972 330.938C231.085 332.717 234.204 335.347 234.204 337.373C234.204 339.532 230.836 342.334 225.367 344.165ZM223.097 348.71C223.65 351.532 223.729 354.084 223.363 356.079C223.034 357.872 222.372 359.067 221.553 359.546C219.812 360.564 216.088 359.24 212.072 355.748C211.612 355.347 211.148 354.92 210.683 354.467C212.24 352.747 213.796 350.746 215.314 348.525C217.986 348.285 220.509 347.893 222.798 347.359C222.911 347.818 223.011 348.269 223.097 348.71ZM200.147 359.37C198.446 359.977 197.09 359.994 196.271 359.517C194.528 358.501 193.804 354.58 194.792 349.319C194.905 348.717 195.04 348.098 195.195 347.466C197.459 347.972 199.964 348.335 202.642 348.555C204.171 350.729 205.772 352.727 207.385 354.477C207.033 354.821 206.682 355.148 206.332 355.457C204.189 357.35 202.04 358.694 200.147 359.37ZM192.176 344.152C189.482 343.221 187.257 342.012 185.732 340.692C184.361 339.506 183.669 338.329 183.669 337.373C183.669 335.34 186.669 332.747 191.672 330.984C192.279 330.77 192.915 330.568 193.574 330.379C194.265 332.652 195.172 335.028 196.267 337.431C195.158 339.87 194.238 342.284 193.54 344.584C193.07 344.447 192.615 344.303 192.176 344.152ZM194.848 325.774C193.81 320.411 194.499 316.365 196.235 315.35C198.083 314.269 202.171 315.811 206.479 319.676C206.755 319.923 207.031 320.182 207.309 320.45C205.703 322.192 204.117 324.175 202.601 326.336C200.003 326.579 197.515 326.97 195.228 327.494C195.084 326.909 194.957 326.335 194.848 325.774ZM218.683 331.721C218.136 330.767 217.575 329.835 217.003 328.929C218.766 329.154 220.455 329.453 222.041 329.819C221.565 331.361 220.971 332.974 220.273 334.627C219.771 333.665 219.241 332.696 218.683 331.721ZM208.963 322.154C210.052 323.346 211.142 324.677 212.215 326.121C211.134 326.07 210.04 326.043 208.937 326.043C207.844 326.043 206.758 326.069 205.684 326.12C206.758 324.689 207.857 323.36 208.963 322.154ZM199.181 331.738C198.635 332.695 198.115 333.659 197.621 334.625C196.934 332.978 196.346 331.358 195.865 329.793C197.442 329.437 199.123 329.145 200.875 328.925C200.295 329.839 199.729 330.778 199.181 331.737V331.738ZM200.925 345.992C199.116 345.788 197.409 345.511 195.833 345.165C196.321 343.573 196.922 341.918 197.624 340.235C198.119 341.201 198.641 342.165 199.19 343.124H199.191C199.75 344.102 200.33 345.059 200.925 345.992ZM209.029 352.76C207.91 351.54 206.794 350.191 205.704 348.74C206.762 348.782 207.841 348.803 208.937 348.803C210.063 348.803 211.177 348.777 212.272 348.728C211.196 350.206 210.11 351.557 209.029 352.76ZM220.295 340.149C221.034 341.851 221.656 343.496 222.151 345.061C220.549 345.431 218.819 345.728 216.996 345.949C217.57 345.031 218.136 344.083 218.693 343.108C219.255 342.122 219.79 341.134 220.295 340.149ZM216.648 341.916C215.784 343.43 214.897 344.874 213.997 346.238C212.357 346.357 210.663 346.418 208.937 346.418C207.217 346.418 205.545 346.364 203.934 346.258C202.997 344.876 202.091 343.427 201.233 341.929H201.233C200.377 340.435 199.59 338.929 198.876 337.43C199.589 335.929 200.375 334.42 201.226 332.929L201.226 332.929C202.079 331.434 202.977 329.992 203.905 328.619C205.549 328.494 207.234 328.428 208.937 328.428H208.937C210.648 328.428 212.335 328.494 213.978 328.621C214.891 329.984 215.783 331.421 216.64 332.916C217.506 334.429 218.302 335.927 219.022 337.397C218.305 338.891 217.51 340.405 216.648 341.916ZM221.517 315.279C223.368 316.357 224.087 320.706 222.925 326.409C222.85 326.773 222.767 327.143 222.676 327.519C220.384 326.984 217.894 326.586 215.288 326.339C213.77 324.154 212.196 322.168 210.617 320.448C211.042 320.036 211.466 319.642 211.888 319.271C215.967 315.683 219.78 314.267 221.517 315.279ZM208.937 332.387C211.662 332.387 213.871 334.619 213.871 337.373C213.871 340.127 211.662 342.359 208.937 342.359C206.212 342.359 204.003 340.127 204.003 337.373C204.003 334.619 206.212 332.387 208.937 332.387Z" fill="white"/>
</g>
<rect x="250.379" y="410.972" width="65.0596" height="65.0596" rx="18" fill="url(#paint6_linear_2_30)" fill-opacity="0.4"/>
<g clip-path="url(#clip2_2_30)">
<path d="M295.119 426.123H302.961L283.354 460.849L263.747 426.123H271.492H278.747L283.354 434.175L287.864 426.123H295.119Z" fill="white"/>
<path d="M263.747 426.123L283.354 460.849L302.961 426.123H295.119L283.354 446.959L271.492 426.123H263.747Z" fill="white"/>
<path d="M271.492 426.123L283.354 447.059L295.119 426.123H287.864L283.354 434.175L278.747 426.123H271.492Z" fill="#35495E" fill-opacity="0.2"/>
</g>
<rect x="106" y="410.972" width="49.9088" height="49.9088" rx="18" fill="url(#paint7_linear_2_30)" fill-opacity="0.4"/>
<g clip-path="url(#clip3_2_30)">
<path d="M142.618 424.898C139.635 420.757 133.742 419.53 129.481 422.162L121.998 426.787C119.954 428.034 118.546 430.058 118.12 432.363C117.763 434.283 118.077 436.263 119.011 437.991C118.371 438.933 117.934 439.992 117.727 441.102C117.297 443.451 117.86 445.87 119.29 447.811C122.274 451.953 128.167 453.18 132.427 450.547L139.91 445.923C141.954 444.676 143.362 442.652 143.789 440.347C144.146 438.427 143.832 436.446 142.898 434.718C143.538 433.776 143.975 432.718 144.181 431.607C144.612 429.258 144.049 426.839 142.619 424.898" fill="white" fill-opacity="0.4"/>
<path d="M128.75 448.205C126.337 448.813 123.789 447.898 122.368 445.911C121.507 444.744 121.169 443.289 121.428 441.876C121.471 441.646 121.531 441.419 121.606 441.198L121.747 440.781L122.131 441.054C123.017 441.685 124.007 442.165 125.059 442.473L125.337 442.555L125.312 442.824C125.278 443.207 125.385 443.589 125.613 443.903C126.041 444.501 126.808 444.777 127.535 444.595C127.698 444.552 127.853 444.486 127.995 444.399L135.48 439.773C135.85 439.547 136.106 439.18 136.183 438.763C136.261 438.337 136.159 437.898 135.9 437.546C135.472 436.948 134.705 436.672 133.978 436.854C133.815 436.896 133.66 436.962 133.519 437.05L130.662 438.816C130.193 439.105 129.68 439.324 129.142 439.463C126.73 440.071 124.182 439.155 122.761 437.169C121.9 436.001 121.561 434.547 121.82 433.133C122.077 431.747 122.924 430.53 124.154 429.78L131.638 425.154C132.108 424.864 132.621 424.645 133.159 424.506C135.572 423.898 138.12 424.813 139.541 426.8C140.401 427.967 140.74 429.422 140.481 430.835C140.437 431.065 140.378 431.291 140.302 431.513L140.161 431.93L139.778 431.657C138.892 431.026 137.902 430.546 136.85 430.238L136.571 430.156L136.597 429.887C136.631 429.504 136.524 429.122 136.295 428.808C135.868 428.209 135.1 427.933 134.374 428.116C134.211 428.158 134.056 428.224 133.914 428.312L126.429 432.938C126.058 433.164 125.803 433.531 125.726 433.948C125.648 434.374 125.75 434.812 126.009 435.165C126.437 435.763 127.204 436.039 127.931 435.857C128.094 435.814 128.249 435.748 128.391 435.661L131.247 433.896C131.716 433.606 132.229 433.387 132.766 433.248C135.179 432.64 137.727 433.555 139.148 435.542C140.008 436.709 140.347 438.164 140.088 439.577C139.832 440.964 138.985 442.181 137.755 442.932L130.27 447.557C129.8 447.847 129.288 448.066 128.749 448.205" fill="white"/>
</g>
<rect x="121.151" y="201.533" width="62.386" height="62.386" rx="18" fill="url(#paint8_linear_2_30)" fill-opacity="0.4"/>
<path d="M146.941 251.439C144.759 250.493 142.718 248.086 142.713 245.623C142.707 242.938 144.402 240.658 146.509 239.16C146.256 240.121 146.118 241 146.745 241.86C147.329 242.659 148.351 243.048 149.316 242.837C151.571 242.342 151.674 239.852 150.338 238.402C149.016 236.966 147.737 235.343 148.24 233.261C148.492 232.217 149.131 231.239 149.939 230.54C149.318 232.18 151.084 233.798 152.248 234.604C154.267 236.002 156.482 237.058 158.339 238.697C160.291 240.42 161.733 242.749 161.442 245.45C161.126 248.378 158.81 250.414 156.211 251.442C161.702 250.225 167.377 245.945 167.493 239.829C167.589 234.798 164.152 230.926 159.894 228.709L159.672 228.587C159.789 228.872 159.827 229.114 159.822 229.331C159.861 229.171 159.886 229.007 159.894 228.837C159.892 229.048 159.865 229.247 159.816 229.434L159.822 229.331C159.758 229.602 159.651 229.855 159.507 230.085L159.57 230.018C158.72 231.433 156.421 231.74 155.285 230.275C153.458 227.918 155.323 225.378 155.584 222.882C155.91 219.755 153.957 216.719 151.535 214.902C152.869 217.068 151.112 219.935 149.706 221.537C148.343 223.091 146.685 224.388 145.18 225.799C143.563 227.315 142.009 228.912 140.681 230.691C138.023 234.252 136.396 238.731 137.592 243.174C138.787 247.614 142.616 250.44 146.941 251.439Z" fill="white"/>
<g filter="url(#filter0_f_2_30)">
<rect x="26" y="272" width="48" height="48" rx="18" fill="url(#paint9_linear_2_30)" fill-opacity="0.4"/>
</g>
<rect x="655" y="187" width="65" height="65" rx="18" fill="url(#paint10_linear_2_30)" fill-opacity="0.4"/>
<g filter="url(#filter1_f_2_30)">
<rect x="631" y="388" width="46" height="46" rx="18" fill="url(#paint11_linear_2_30)" fill-opacity="0.4"/>
</g>
<g filter="url(#filter2_f_2_30)">
<rect x="706" y="460" width="37" height="37" rx="18" fill="url(#paint12_linear_2_30)" fill-opacity="0.4"/>
</g>
<g filter="url(#filter3_f_2_30)">
<rect x="486" y="180" width="28" height="28" rx="14" fill="url(#paint13_linear_2_30)" fill-opacity="0.4"/>
</g>
<g filter="url(#filter4_f_2_30)">
<rect x="681" y="309" width="22" height="22" rx="11" fill="url(#paint14_linear_2_30)" fill-opacity="0.4"/>
</g>
<g filter="url(#filter5_f_2_30)">
<rect x="-12" y="388" width="46" height="46" rx="18" fill="url(#paint15_linear_2_30)" fill-opacity="0.4"/>
</g>
<rect x="521.312" y="420.775" width="49.0175" height="49.0175" rx="18" fill="url(#paint16_linear_2_30)" fill-opacity="0.4"/>
<path d="M546.267 454.481V459.989C555.604 459.989 562.874 450.969 559.819 441.185C558.484 436.909 555.087 433.512 550.811 432.177C541.027 429.123 532.007 436.393 532.007 445.73H537.528C537.529 445.73 537.53 445.729 537.53 445.729C537.531 439.869 543.33 435.339 549.49 437.574C551.772 438.402 553.593 440.223 554.422 442.505C556.657 448.662 552.134 454.458 546.279 454.467V448.976C546.279 448.976 546.279 448.975 546.278 448.975H540.774C540.774 448.975 540.773 448.976 540.773 448.976V454.481H546.267ZM540.772 458.712H536.543L536.542 458.711V454.481H540.773V458.711C540.773 458.711 540.773 458.712 540.772 458.712ZM536.545 454.481H532.999C532.998 454.481 532.997 454.48 532.997 454.48V450.936C532.997 450.936 532.998 450.933 532.999 450.933H536.542C536.544 450.933 536.545 450.935 536.545 450.935V454.481Z" fill="white"/>
<rect x="307.418" y="197.968" width="122.098" height="122.098" rx="18" fill="url(#paint17_linear_2_30)" fill-opacity="0.4"/>
<g clip-path="url(#clip4_2_30)">
<path d="M368.912 298.53C367.833 298.53 366.825 298.239 365.89 297.73L356.319 291.984C354.88 291.184 355.599 290.893 356.031 290.747C357.974 290.093 358.334 289.947 360.349 288.784C360.565 288.638 360.852 288.711 361.068 288.856L368.409 293.293C368.696 293.439 369.056 293.439 369.272 293.293L397.985 276.491C398.273 276.346 398.417 276.055 398.417 275.691V242.16C398.417 241.797 398.273 241.506 397.985 241.36L369.272 224.631C368.984 224.486 368.624 224.486 368.409 224.631L339.696 241.36C339.408 241.506 339.264 241.869 339.264 242.16V275.691C339.264 275.982 339.408 276.346 339.696 276.491L347.539 281.074C351.785 283.256 354.448 280.71 354.448 278.164V245.07C354.448 244.633 354.808 244.197 355.311 244.197H358.981C359.413 244.197 359.845 244.561 359.845 245.07V278.164C359.845 283.91 356.751 287.256 351.353 287.256C349.698 287.256 348.403 287.256 344.733 285.438L337.177 281.074C335.306 279.983 334.154 277.946 334.154 275.764V242.233C334.154 240.051 335.306 238.014 337.177 236.923L365.89 220.122C367.689 219.103 370.136 219.103 371.935 220.122L400.648 236.923C402.519 238.014 403.67 240.051 403.67 242.233V275.764C403.67 277.946 402.519 279.983 400.648 281.074L371.935 297.875C370.999 298.312 369.92 298.53 368.912 298.53ZM377.764 275.473C365.17 275.473 362.58 269.654 362.58 264.708C362.58 264.272 362.939 263.835 363.443 263.835H367.185C367.617 263.835 367.977 264.126 367.977 264.563C368.552 268.418 370.208 270.309 377.836 270.309C383.88 270.309 386.471 268.927 386.471 265.654C386.471 263.763 385.752 262.381 376.324 261.435C368.481 260.635 363.587 258.889 363.587 252.561C363.587 246.67 368.481 243.179 376.684 243.179C385.895 243.179 390.429 246.379 391.005 253.362C391.005 253.58 390.933 253.798 390.789 254.016C390.645 254.162 390.429 254.307 390.213 254.307H386.471C386.111 254.307 385.752 254.016 385.68 253.652C384.816 249.652 382.585 248.343 376.684 248.343C370.064 248.343 369.272 250.67 369.272 252.416C369.272 254.525 370.208 255.18 379.131 256.344C387.982 257.507 392.156 259.18 392.156 265.436C392.084 271.836 386.903 275.473 377.764 275.473Z" fill="white"/>
</g>
<rect x="368.912" y="352.151" width="91.7965" height="91.7965" rx="18" fill="url(#paint18_linear_2_30)" fill-opacity="0.4"/>
<g clip-path="url(#clip5_2_30)">
<path d="M440.182 383.432C440.201 383.5 440.211 383.571 440.211 383.643V394.719C440.211 395.008 440.056 395.275 439.806 395.419L430.55 400.771V411.38C430.55 411.669 430.397 411.935 430.148 412.081L410.827 423.252C410.782 423.277 410.734 423.293 410.686 423.31C410.668 423.316 410.651 423.327 410.632 423.332C410.496 423.368 410.354 423.368 410.219 423.332C410.197 423.326 410.177 423.314 410.156 423.306C410.112 423.29 410.066 423.276 410.023 423.252L390.706 412.081C390.456 411.937 390.302 411.669 390.302 411.38V378.152C390.302 378.079 390.312 378.009 390.33 377.94C390.336 377.917 390.35 377.896 390.358 377.872C390.373 377.83 390.387 377.787 390.409 377.747C390.424 377.721 390.446 377.7 390.465 377.675C390.488 377.643 390.509 377.61 390.536 377.582C390.559 377.558 390.589 377.541 390.615 377.521C390.645 377.497 390.671 377.471 390.704 377.451H390.705L400.364 371.866C400.613 371.722 400.919 371.722 401.168 371.866L410.828 377.451H410.83C410.862 377.472 410.889 377.497 410.918 377.52C410.944 377.54 410.973 377.558 410.996 377.581C411.025 377.61 411.045 377.643 411.069 377.675C411.086 377.7 411.109 377.721 411.123 377.747C411.146 377.788 411.159 377.83 411.175 377.872C411.183 377.896 411.197 377.917 411.203 377.941C411.222 378.01 411.231 378.081 411.232 378.152V398.906L419.281 394.251V383.642C419.281 383.571 419.291 383.499 419.309 383.432C419.316 383.407 419.329 383.386 419.337 383.363C419.353 383.321 419.367 383.277 419.389 383.238C419.404 383.211 419.426 383.19 419.444 383.166C419.468 383.134 419.488 383.1 419.516 383.072C419.539 383.049 419.568 383.032 419.594 383.012C419.624 382.987 419.651 382.961 419.683 382.942H419.684L429.344 377.356C429.593 377.212 429.899 377.212 430.148 377.356L439.807 382.942C439.842 382.962 439.868 382.987 439.898 383.011C439.923 383.031 439.952 383.049 439.975 383.071C440.003 383.1 440.024 383.134 440.048 383.166C440.066 383.19 440.088 383.211 440.102 383.238C440.125 383.277 440.138 383.321 440.154 383.363C440.163 383.386 440.176 383.407 440.182 383.432ZM438.6 394.251V385.041L435.22 386.995L430.55 389.695V398.906L438.601 394.251H438.6ZM428.941 410.913V401.696L424.348 404.331L411.231 411.849V421.153L428.941 410.913ZM391.912 379.55V410.913L409.62 421.152V411.85L400.369 406.592L400.366 406.59L400.362 406.588C400.331 406.57 400.305 406.544 400.276 406.521C400.251 406.501 400.221 406.485 400.199 406.463L400.197 406.46C400.171 406.435 400.153 406.403 400.131 406.375C400.111 406.348 400.087 406.325 400.071 406.296L400.07 406.293C400.052 406.263 400.04 406.227 400.027 406.192C400.014 406.162 399.997 406.134 399.989 406.101V406.1C399.979 406.062 399.977 406.022 399.973 405.982C399.969 405.952 399.961 405.922 399.961 405.892V405.889V384.205L395.292 381.503L391.912 379.551V379.55ZM400.767 373.499L392.719 378.152L400.765 382.805L408.812 378.151L400.765 373.499H400.767ZM404.953 402.536L409.621 399.837V379.55L406.241 381.504L401.571 384.205V404.491L404.953 402.536ZM429.746 378.99L421.699 383.643L429.746 388.295L437.792 383.642L429.746 378.99ZM428.941 389.695L424.271 386.995L420.891 385.041V394.251L425.56 396.951L428.941 398.906V389.695ZM410.424 410.451L422.228 403.684L428.128 400.302L420.087 395.652L410.829 401.006L402.39 405.884L410.424 410.451Z" fill="white"/>
</g>
<rect x="499.923" y="259.463" width="114.077" height="114.077" rx="18" fill="url(#paint19_linear_2_30)" fill-opacity="0.4"/>
<g clip-path="url(#clip6_2_30)">
<path d="M556.961 295.112C547.455 295.112 541.513 299.853 539.137 309.335C542.702 304.594 546.861 302.816 551.614 304.001C554.326 304.678 556.264 306.64 558.41 308.812C561.905 312.351 565.95 316.446 574.786 316.446C584.292 316.446 590.234 311.705 592.611 302.224C589.046 306.964 584.887 308.742 580.133 307.557C577.421 306.881 575.483 304.919 573.337 302.746C569.842 299.208 565.797 295.112 556.961 295.112ZM539.137 316.446C529.63 316.446 523.689 321.187 521.312 330.669C524.877 325.928 529.036 324.15 533.789 325.335C536.501 326.012 538.44 327.974 540.585 330.146C544.081 333.685 548.126 337.78 556.961 337.78C566.468 337.78 572.409 333.039 574.786 323.557C571.221 328.298 567.062 330.076 562.309 328.891C559.597 328.215 557.658 326.252 555.513 324.08C552.018 320.542 547.972 316.446 539.137 316.446Z" fill="url(#paint20_linear_2_30)"/>
</g>
<path d="M103.466 633H110.824C115.636 633 117.625 630.653 117.625 627.591C117.625 624.369 115.398 622.619 113.528 622.5V622.301C115.278 621.824 116.83 620.67 116.83 618.045C116.83 615.062 114.841 612.636 110.585 612.636H103.466V633ZM105.932 630.812V623.733H110.943C113.608 623.733 115.278 625.523 115.278 627.591C115.278 629.381 114.045 630.812 110.824 630.812H105.932ZM105.932 621.585V614.824H110.585C113.29 614.824 114.483 616.256 114.483 618.045C114.483 620.193 112.733 621.585 110.506 621.585H105.932ZM127.762 633.318C130.864 633.318 133.131 631.767 133.847 629.46L131.58 628.824C130.984 630.415 129.602 631.21 127.762 631.21C125.008 631.21 123.109 629.43 122.999 626.159H134.086V625.165C134.086 619.477 130.705 617.528 127.523 617.528C123.387 617.528 120.643 620.79 120.643 625.483C120.643 630.176 123.347 633.318 127.762 633.318ZM122.999 624.131C123.158 621.754 124.839 619.636 127.523 619.636C130.069 619.636 131.7 621.545 131.7 624.131H122.999ZM140.002 612.636H137.656V633H140.002V612.636ZM148.794 633.358C151.459 633.358 152.851 631.926 153.328 630.932H153.448V633H155.794V622.938C155.794 618.085 152.096 617.528 150.147 617.528C147.84 617.528 145.215 618.324 144.022 621.108L146.249 621.903C146.766 620.79 147.989 619.597 150.226 619.597C152.384 619.597 153.448 620.74 153.448 622.699V622.778C153.448 623.912 152.294 623.812 149.51 624.17C146.676 624.538 143.584 625.165 143.584 628.665C143.584 631.648 145.891 633.358 148.794 633.358ZM149.152 631.25C147.283 631.25 145.931 630.415 145.931 628.784C145.931 626.994 147.561 626.438 149.391 626.199C150.385 626.08 153.05 625.801 153.448 625.324V627.472C153.448 629.381 151.936 631.25 149.152 631.25ZM160.077 617.727V634.114C160.077 635.665 159.441 636.54 158.009 636.54H157.572V638.727H158.049C160.992 638.727 162.424 636.938 162.424 634.114V617.727H160.077ZM161.231 615.182C162.146 615.182 162.901 614.466 162.901 613.591C162.901 612.716 162.146 612 161.231 612C160.316 612 159.56 612.716 159.56 613.591C159.56 614.466 160.316 615.182 161.231 615.182ZM171.216 633.358C173.881 633.358 175.273 631.926 175.75 630.932H175.87V633H178.216V622.938C178.216 618.085 174.517 617.528 172.569 617.528C170.262 617.528 167.637 618.324 166.444 621.108L168.671 621.903C169.188 620.79 170.411 619.597 172.648 619.597C174.806 619.597 175.87 620.74 175.87 622.699V622.778C175.87 623.912 174.716 623.812 171.932 624.17C169.098 624.538 166.006 625.165 166.006 628.665C166.006 631.648 168.313 633.358 171.216 633.358ZM171.574 631.25C169.705 631.25 168.353 630.415 168.353 628.784C168.353 626.994 169.983 626.438 171.813 626.199C172.807 626.08 175.472 625.801 175.87 625.324V627.472C175.87 629.381 174.358 631.25 171.574 631.25ZM182.499 633H184.846V623.335C184.846 621.267 186.477 619.756 188.704 619.756C189.33 619.756 189.977 619.875 190.136 619.915V617.528C189.867 617.509 189.251 617.489 188.903 617.489C187.073 617.489 185.482 618.523 184.925 620.034H184.766V617.727H182.499V633ZM211.61 621.148C210.875 618.98 209.224 617.528 206.201 617.528C202.98 617.528 200.593 619.358 200.593 621.943C200.593 624.051 201.846 625.463 204.65 626.119L207.196 626.716C208.737 627.074 209.463 627.81 209.463 628.864C209.463 630.176 208.071 631.25 205.883 631.25C203.964 631.25 202.761 630.425 202.343 628.784L200.116 629.341C200.663 631.936 202.801 633.318 205.923 633.318C209.473 633.318 211.889 631.379 211.889 628.744C211.889 626.616 210.556 625.274 207.832 624.608L205.565 624.051C203.755 623.604 202.94 622.997 202.94 621.824C202.94 620.511 204.332 619.557 206.201 619.557C208.25 619.557 209.095 620.69 209.502 621.744L211.61 621.148ZM221.825 633.318C224.927 633.318 227.194 631.767 227.91 629.46L225.643 628.824C225.046 630.415 223.664 631.21 221.825 631.21C219.07 631.21 217.171 629.43 217.062 626.159H228.148V625.165C228.148 619.477 224.768 617.528 221.586 617.528C217.45 617.528 214.705 620.79 214.705 625.483C214.705 630.176 217.41 633.318 221.825 633.318ZM217.062 624.131C217.221 621.754 218.901 619.636 221.586 619.636C224.131 619.636 225.762 621.545 225.762 624.131H217.062ZM237.923 633.318C241.303 633.318 243.531 631.25 243.928 628.545H241.582C241.144 630.216 239.752 631.21 237.923 631.21C235.138 631.21 233.349 628.903 233.349 625.364C233.349 621.903 235.178 619.636 237.923 619.636C239.991 619.636 241.224 620.909 241.582 622.301H243.928C243.531 619.438 241.104 617.528 237.883 617.528C233.746 617.528 231.002 620.79 231.002 625.443C231.002 630.017 233.627 633.318 237.923 633.318ZM251.853 633.358C254.518 633.358 255.91 631.926 256.387 630.932H256.506V633H258.853V622.938C258.853 618.085 255.154 617.528 253.205 617.528C250.898 617.528 248.273 618.324 247.08 621.108L249.308 621.903C249.825 620.79 251.048 619.597 253.285 619.597C255.442 619.597 256.506 620.74 256.506 622.699V622.778C256.506 623.912 255.353 623.812 252.569 624.17C249.735 624.538 246.643 625.165 246.643 628.665C246.643 631.648 248.95 633.358 251.853 633.358ZM252.211 631.25C250.342 631.25 248.989 630.415 248.989 628.784C248.989 626.994 250.62 626.438 252.45 626.199C253.444 626.08 256.109 625.801 256.506 625.324V627.472C256.506 629.381 254.995 631.25 252.211 631.25ZM263.136 633H265.483V623.335C265.483 621.267 267.113 619.756 269.341 619.756C269.967 619.756 270.613 619.875 270.772 619.915V617.528C270.504 617.509 269.887 617.489 269.539 617.489C267.71 617.489 266.119 618.523 265.562 620.034H265.403V617.727H263.136V633ZM278.048 633.358C280.713 633.358 282.105 631.926 282.582 630.932H282.702V633H285.048V622.938C285.048 618.085 281.349 617.528 279.401 617.528C277.094 617.528 274.469 618.324 273.276 621.108L275.503 621.903C276.02 620.79 277.243 619.597 279.48 619.597C281.638 619.597 282.702 620.74 282.702 622.699V622.778C282.702 623.912 281.548 623.812 278.764 624.17C275.93 624.538 272.838 625.165 272.838 628.665C272.838 631.648 275.145 633.358 278.048 633.358ZM278.406 631.25C276.537 631.25 275.185 630.415 275.185 628.784C275.185 626.994 276.815 626.438 278.645 626.199C279.639 626.08 282.304 625.801 282.702 625.324V627.472C282.702 629.381 281.19 631.25 278.406 631.25ZM303.411 633.318C307.547 633.318 310.331 630.176 310.331 625.443C310.331 620.67 307.547 617.528 303.411 617.528C299.275 617.528 296.49 620.67 296.49 625.443C296.49 630.176 299.275 633.318 303.411 633.318ZM303.411 631.21C300.269 631.21 298.837 628.506 298.837 625.443C298.837 622.381 300.269 619.636 303.411 619.636C306.553 619.636 307.985 622.381 307.985 625.443C307.985 628.506 306.553 631.21 303.411 631.21ZM316.26 623.812C316.26 621.148 317.911 619.636 320.158 619.636C322.335 619.636 323.658 621.058 323.658 623.455V633H326.004V623.295C326.004 619.398 323.926 617.528 320.834 617.528C318.527 617.528 317.095 618.562 316.379 620.114H316.18V617.727H313.913V633H316.26V623.812ZM332.639 612.636H330.292V633H332.639V612.636ZM336.937 633H339.283V617.727H336.937V633ZM338.13 615.182C339.045 615.182 339.8 614.466 339.8 613.591C339.8 612.716 339.045 612 338.13 612C337.215 612 336.46 612.716 336.46 613.591C336.46 614.466 337.215 615.182 338.13 615.182ZM345.928 623.812C345.928 621.148 347.578 619.636 349.826 619.636C352.003 619.636 353.326 621.058 353.326 623.455V633H355.672V623.295C355.672 619.398 353.594 617.528 350.502 617.528C348.195 617.528 346.763 618.562 346.047 620.114H345.848V617.727H343.581V633H345.928V623.812ZM366.364 633.318C369.466 633.318 371.733 631.767 372.449 629.46L370.182 628.824C369.585 630.415 368.203 631.21 366.364 631.21C363.609 631.21 361.71 629.43 361.601 626.159H372.688V625.165C372.688 619.477 369.307 617.528 366.125 617.528C361.989 617.528 359.244 620.79 359.244 625.483C359.244 630.176 361.949 633.318 366.364 633.318ZM361.601 624.131C361.76 621.754 363.44 619.636 366.125 619.636C368.67 619.636 370.301 621.545 370.301 624.131H361.601ZM394.95 621.148C394.214 618.98 392.564 617.528 389.541 617.528C386.32 617.528 383.933 619.358 383.933 621.943C383.933 624.051 385.186 625.463 387.99 626.119L390.536 626.716C392.077 627.074 392.803 627.81 392.803 628.864C392.803 630.176 391.411 631.25 389.223 631.25C387.304 631.25 386.101 630.425 385.683 628.784L383.456 629.341C384.003 631.936 386.141 633.318 389.263 633.318C392.812 633.318 395.229 631.379 395.229 628.744C395.229 626.616 393.896 625.274 391.172 624.608L388.905 624.051C387.095 623.604 386.28 622.997 386.28 621.824C386.28 620.511 387.672 619.557 389.541 619.557C391.589 619.557 392.435 620.69 392.842 621.744L394.95 621.148ZM405.164 633.318C408.267 633.318 410.534 631.767 411.25 629.46L408.983 628.824C408.386 630.415 407.004 631.21 405.164 631.21C402.41 631.21 400.511 629.43 400.402 626.159H411.488V625.165C411.488 619.477 408.108 617.528 404.926 617.528C400.789 617.528 398.045 620.79 398.045 625.483C398.045 630.176 400.75 633.318 405.164 633.318ZM400.402 624.131C400.561 621.754 402.241 619.636 404.926 619.636C407.471 619.636 409.102 621.545 409.102 624.131H400.402ZM415.058 633H417.404V623.455C417.404 621.217 419.035 619.636 420.865 619.636C422.645 619.636 423.887 620.8 423.887 622.54V633H426.274V623.057C426.274 621.088 427.507 619.636 429.654 619.636C431.325 619.636 432.757 620.521 432.757 622.778V633H435.103V622.778C435.103 619.189 433.174 617.528 430.45 617.528C428.262 617.528 426.662 618.533 425.876 620.114H425.717C424.961 618.483 423.629 617.528 421.62 617.528C419.632 617.528 418.16 618.483 417.524 620.114H417.325V617.727H415.058V633ZM443.888 633.358C446.553 633.358 447.945 631.926 448.422 630.932H448.542V633H450.888V622.938C450.888 618.085 447.189 617.528 445.24 617.528C442.934 617.528 440.309 618.324 439.115 621.108L441.343 621.903C441.86 620.79 443.083 619.597 445.32 619.597C447.478 619.597 448.542 620.74 448.542 622.699V622.778C448.542 623.912 447.388 623.812 444.604 624.17C441.77 624.538 438.678 625.165 438.678 628.665C438.678 631.648 440.985 633.358 443.888 633.358ZM444.246 631.25C442.377 631.25 441.025 630.415 441.025 628.784C441.025 626.994 442.655 626.438 444.485 626.199C445.479 626.08 448.144 625.801 448.542 625.324V627.472C448.542 629.381 447.03 631.25 444.246 631.25ZM455.171 633H457.518V627.283L459.158 625.761L464.876 633H467.859L460.928 624.25L467.381 617.727H464.478L457.796 624.528H457.518V612.636H455.171V633ZM470.402 633H472.748V617.727H470.402V633ZM471.595 615.182C472.51 615.182 473.265 614.466 473.265 613.591C473.265 612.716 472.51 612 471.595 612C470.68 612 469.924 612.716 469.924 613.591C469.924 614.466 470.68 615.182 471.595 615.182ZM479.393 623.812C479.393 621.148 481.043 619.636 483.29 619.636C485.468 619.636 486.79 621.058 486.79 623.455V633H489.137V623.295C489.137 619.398 487.059 617.528 483.967 617.528C481.66 617.528 480.228 618.562 479.512 620.114H479.313V617.727H477.046V633H479.393V623.812ZM501.3 633H503.647V623.455C503.647 621.217 505.277 619.636 507.107 619.636C508.887 619.636 510.13 620.8 510.13 622.54V633H512.516V623.057C512.516 621.088 513.749 619.636 515.897 619.636C517.567 619.636 518.999 620.521 518.999 622.778V633H521.346V622.778C521.346 619.189 519.417 617.528 516.692 617.528C514.505 617.528 512.904 618.533 512.118 620.114H511.959C511.203 618.483 509.871 617.528 507.863 617.528C505.874 617.528 504.402 618.483 503.766 620.114H503.567V617.727H501.3V633ZM535.261 626.756C535.261 629.619 533.074 630.932 531.324 630.932C529.375 630.932 527.983 629.5 527.983 627.273V617.727H525.636V627.432C525.636 631.33 527.704 633.199 530.568 633.199C532.875 633.199 534.386 631.966 535.102 630.415H535.261V633H537.608V617.727H535.261V626.756ZM547.673 633.318C550.616 633.318 551.61 631.489 552.127 630.653H552.406V633H554.673V612.636H552.326V620.153H552.127C551.61 619.358 550.695 617.528 547.712 617.528C543.854 617.528 541.19 620.591 541.19 625.403C541.19 630.256 543.854 633.318 547.673 633.318ZM547.991 631.21C545.048 631.21 543.536 628.625 543.536 625.364C543.536 622.142 545.008 619.636 547.991 619.636C550.854 619.636 552.366 621.943 552.366 625.364C552.366 628.824 550.815 631.21 547.991 631.21ZM563.79 633.358C566.455 633.358 567.847 631.926 568.325 630.932H568.444V633H570.79V622.938C570.79 618.085 567.092 617.528 565.143 617.528C562.836 617.528 560.211 618.324 559.018 621.108L561.245 621.903C561.762 620.79 562.985 619.597 565.222 619.597C567.38 619.597 568.444 620.74 568.444 622.699V622.778C568.444 623.912 567.29 623.812 564.506 624.17C561.673 624.538 558.58 625.165 558.58 628.665C558.58 631.648 560.887 633.358 563.79 633.358ZM564.148 631.25C562.279 631.25 560.927 630.415 560.927 628.784C560.927 626.994 562.558 626.438 564.387 626.199C565.381 626.08 568.046 625.801 568.444 625.324V627.472C568.444 629.381 566.933 631.25 564.148 631.25ZM577.42 623.812C577.42 621.148 579.12 619.636 581.437 619.636C583.645 619.636 584.977 621.028 584.977 623.455V633H587.324V623.295C587.324 619.368 585.235 617.528 582.113 617.528C579.707 617.528 578.335 618.533 577.619 620.114H577.42V612.636H575.074V633H577.42V623.812ZM611.344 623.176H597.344V625.364H611.344V623.176ZM109.79 659.727H106.528V656.068H104.182V659.727H101.875V661.716H104.182V671.261C104.182 673.926 106.33 675.199 108.318 675.199C109.193 675.199 109.75 675.04 110.068 674.92L109.591 672.812C109.392 672.852 109.074 672.932 108.557 672.932C107.523 672.932 106.528 672.614 106.528 670.625V661.716H109.79V659.727ZM119.559 675.318C122.661 675.318 124.928 673.767 125.644 671.46L123.377 670.824C122.781 672.415 121.398 673.21 119.559 673.21C116.805 673.21 114.906 671.43 114.796 668.159H125.883V667.165C125.883 661.477 122.502 659.528 119.32 659.528C115.184 659.528 112.44 662.79 112.44 667.483C112.44 672.176 115.144 675.318 119.559 675.318ZM114.796 666.131C114.955 663.754 116.636 661.636 119.32 661.636C121.866 661.636 123.496 663.545 123.496 666.131H114.796ZM136.094 659.727H132.833V656.068H130.487V659.727H128.18V661.716H130.487V671.261C130.487 673.926 132.634 675.199 134.623 675.199C135.498 675.199 136.055 675.04 136.373 674.92L135.896 672.812C135.697 672.852 135.379 672.932 134.862 672.932C133.827 672.932 132.833 672.614 132.833 670.625V661.716H136.094V659.727ZM145.864 675.318C148.966 675.318 151.233 673.767 151.949 671.46L149.682 670.824C149.085 672.415 147.703 673.21 145.864 673.21C143.109 673.21 141.21 671.43 141.101 668.159H152.188V667.165C152.188 661.477 148.807 659.528 145.625 659.528C141.489 659.528 138.744 662.79 138.744 667.483C138.744 672.176 141.449 675.318 145.864 675.318ZM141.101 666.131C141.26 663.754 142.94 661.636 145.625 661.636C148.17 661.636 149.801 663.545 149.801 666.131H141.101ZM155.757 680.727H158.104V672.653H158.303C158.82 673.489 159.814 675.318 162.757 675.318C166.575 675.318 169.24 672.256 169.24 667.403C169.24 662.591 166.575 659.528 162.717 659.528C159.734 659.528 158.82 661.358 158.303 662.153H158.024V659.727H155.757V680.727ZM158.064 667.364C158.064 663.943 159.575 661.636 162.439 661.636C165.422 661.636 166.893 664.142 166.893 667.364C166.893 670.625 165.382 673.21 162.439 673.21C159.615 673.21 158.064 670.824 158.064 667.364ZM181.013 675H183.28V672.653H183.558C184.075 673.489 185.07 675.318 188.013 675.318C191.831 675.318 194.496 672.256 194.496 667.403C194.496 662.591 191.831 659.528 187.973 659.528C184.99 659.528 184.075 661.358 183.558 662.153H183.359V654.636H181.013V675ZM183.32 667.364C183.32 663.943 184.831 661.636 187.695 661.636C190.678 661.636 192.149 664.142 192.149 667.364C192.149 670.625 190.638 673.21 187.695 673.21C184.871 673.21 183.32 670.824 183.32 667.364ZM204.489 675.318C207.591 675.318 209.858 673.767 210.574 671.46L208.307 670.824C207.71 672.415 206.328 673.21 204.489 673.21C201.734 673.21 199.835 671.43 199.726 668.159H210.812V667.165C210.812 661.477 207.432 659.528 204.25 659.528C200.114 659.528 197.369 662.79 197.369 667.483C197.369 672.176 200.074 675.318 204.489 675.318ZM199.726 666.131C199.885 663.754 201.565 661.636 204.25 661.636C206.795 661.636 208.426 663.545 208.426 666.131H199.726ZM216.729 654.636H214.382V675H216.729V654.636ZM225.521 675.358C228.186 675.358 229.578 673.926 230.055 672.932H230.174V675H232.521V664.938C232.521 660.085 228.822 659.528 226.873 659.528C224.566 659.528 221.941 660.324 220.748 663.108L222.975 663.903C223.493 662.79 224.716 661.597 226.953 661.597C229.11 661.597 230.174 662.74 230.174 664.699V664.778C230.174 665.912 229.021 665.812 226.237 666.17C223.403 666.538 220.311 667.165 220.311 670.665C220.311 673.648 222.618 675.358 225.521 675.358ZM225.879 673.25C224.01 673.25 222.657 672.415 222.657 670.784C222.657 668.994 224.288 668.438 226.118 668.199C227.112 668.08 229.777 667.801 230.174 667.324V669.472C230.174 671.381 228.663 673.25 225.879 673.25ZM236.804 659.727V676.114C236.804 677.665 236.168 678.54 234.736 678.54H234.298V680.727H234.776C237.719 680.727 239.151 678.938 239.151 676.114V659.727H236.804ZM237.957 657.182C238.872 657.182 239.628 656.466 239.628 655.591C239.628 654.716 238.872 654 237.957 654C237.043 654 236.287 654.716 236.287 655.591C236.287 656.466 237.043 657.182 237.957 657.182ZM247.943 675.358C250.608 675.358 252 673.926 252.477 672.932H252.596V675H254.943V664.938C254.943 660.085 251.244 659.528 249.295 659.528C246.988 659.528 244.363 660.324 243.17 663.108L245.397 663.903C245.914 662.79 247.137 661.597 249.375 661.597C251.532 661.597 252.596 662.74 252.596 664.699V664.778C252.596 665.912 251.443 665.812 248.659 666.17C245.825 666.538 242.733 667.165 242.733 670.665C242.733 673.648 245.039 675.358 247.943 675.358ZM248.301 673.25C246.431 673.25 245.079 672.415 245.079 670.784C245.079 668.994 246.71 668.438 248.539 668.199C249.534 668.08 252.199 667.801 252.596 667.324V669.472C252.596 671.381 251.085 673.25 248.301 673.25ZM259.226 675H261.572V665.335C261.572 663.267 263.203 661.756 265.43 661.756C266.057 661.756 266.703 661.875 266.862 661.915V659.528C266.594 659.509 265.977 659.489 265.629 659.489C263.8 659.489 262.209 660.523 261.652 662.034H261.493V659.727H259.226V675ZM280.979 675H283.286L286.627 663.267H286.865L290.206 675H292.513L297.167 659.727H294.701L291.4 671.381H291.24L288.019 659.727H285.513L282.252 671.42H282.093L278.792 659.727H276.326L280.979 675ZM304.763 675.358C307.428 675.358 308.82 673.926 309.297 672.932H309.417V675H311.763V664.938C311.763 660.085 308.064 659.528 306.115 659.528C303.809 659.528 301.184 660.324 299.99 663.108L302.218 663.903C302.735 662.79 303.958 661.597 306.195 661.597C308.353 661.597 309.417 662.74 309.417 664.699V664.778C309.417 665.912 308.263 665.812 305.479 666.17C302.645 666.538 299.553 667.165 299.553 670.665C299.553 673.648 301.86 675.358 304.763 675.358ZM305.121 673.25C303.252 673.25 301.9 672.415 301.9 670.784C301.9 668.994 303.53 668.438 305.36 668.199C306.354 668.08 309.019 667.801 309.417 667.324V669.472C309.417 671.381 307.905 673.25 305.121 673.25ZM318.393 654.636H316.046V675H318.393V654.636ZM327.185 675.358C329.85 675.358 331.242 673.926 331.719 672.932H331.838V675H334.185V664.938C334.185 660.085 330.486 659.528 328.537 659.528C326.23 659.528 323.605 660.324 322.412 663.108L324.64 663.903C325.157 662.79 326.38 661.597 328.617 661.597C330.775 661.597 331.838 662.74 331.838 664.699V664.778C331.838 665.912 330.685 665.812 327.901 666.17C325.067 666.538 321.975 667.165 321.975 670.665C321.975 673.648 324.282 675.358 327.185 675.358ZM327.543 673.25C325.674 673.25 324.321 672.415 324.321 670.784C324.321 668.994 325.952 668.438 327.782 668.199C328.776 668.08 331.441 667.801 331.838 667.324V669.472C331.838 671.381 330.327 673.25 327.543 673.25ZM348.093 668.756C348.093 671.619 345.906 672.932 344.156 672.932C342.207 672.932 340.815 671.5 340.815 669.273V659.727H338.468V669.432C338.468 673.33 340.536 675.199 343.4 675.199C345.707 675.199 347.218 673.966 347.934 672.415H348.093V675H350.44V659.727H348.093V668.756ZM354.738 680.727H357.084V672.653H357.283C357.8 673.489 358.794 675.318 361.738 675.318C365.556 675.318 368.221 672.256 368.221 667.403C368.221 662.591 365.556 659.528 361.698 659.528C358.715 659.528 357.8 661.358 357.283 662.153H357.005V659.727H354.738V680.727ZM357.044 667.364C357.044 663.943 358.556 661.636 361.419 661.636C364.402 661.636 365.874 664.142 365.874 667.364C365.874 670.625 364.363 673.21 361.419 673.21C358.596 673.21 357.044 670.824 357.044 667.364ZM381.425 668.756C381.425 671.619 379.238 672.932 377.488 672.932C375.539 672.932 374.147 671.5 374.147 669.273V659.727H371.8V669.432C371.8 673.33 373.868 675.199 376.732 675.199C379.039 675.199 380.55 673.966 381.266 672.415H381.425V675H383.772V659.727H381.425V668.756ZM390.416 665.812C390.416 663.148 392.067 661.636 394.314 661.636C396.491 661.636 397.814 663.058 397.814 665.455V675H400.161V665.295C400.161 661.398 398.082 659.528 394.99 659.528C392.683 659.528 391.251 660.562 390.536 662.114H390.337V659.727H388.07V675H390.416V665.812ZM412.324 680.727H414.67V672.653H414.869C415.386 673.489 416.38 675.318 419.324 675.318C423.142 675.318 425.806 672.256 425.806 667.403C425.806 662.591 423.142 659.528 419.284 659.528C416.301 659.528 415.386 661.358 414.869 662.153H414.591V659.727H412.324V680.727ZM414.63 667.364C414.63 663.943 416.142 661.636 419.005 661.636C421.988 661.636 423.46 664.142 423.46 667.364C423.46 670.625 421.949 673.21 419.005 673.21C416.181 673.21 414.63 670.824 414.63 667.364ZM433.88 675.358C436.545 675.358 437.937 673.926 438.414 672.932H438.534V675H440.88V664.938C440.88 660.085 437.181 659.528 435.233 659.528C432.926 659.528 430.301 660.324 429.108 663.108L431.335 663.903C431.852 662.79 433.075 661.597 435.312 661.597C437.47 661.597 438.534 662.74 438.534 664.699V664.778C438.534 665.912 437.38 665.812 434.596 666.17C431.762 666.538 428.67 667.165 428.67 670.665C428.67 673.648 430.977 675.358 433.88 675.358ZM434.238 673.25C432.369 673.25 431.017 672.415 431.017 670.784C431.017 668.994 432.647 668.438 434.477 668.199C435.471 668.08 438.136 667.801 438.534 667.324V669.472C438.534 671.381 437.022 673.25 434.238 673.25ZM445.163 675H447.51V669.283L449.151 667.761L454.868 675H457.851L450.92 666.25L457.374 659.727H454.47L447.788 666.528H447.51V654.636H445.163V675ZM466.168 675.318C469.271 675.318 471.538 673.767 472.254 671.46L469.987 670.824C469.39 672.415 468.008 673.21 466.168 673.21C463.414 673.21 461.515 671.43 461.406 668.159H472.492V667.165C472.492 661.477 469.112 659.528 465.93 659.528C461.793 659.528 459.049 662.79 459.049 667.483C459.049 672.176 461.754 675.318 466.168 675.318ZM461.406 666.131C461.565 663.754 463.245 661.636 465.93 661.636C468.475 661.636 470.106 663.545 470.106 666.131H461.406ZM483.937 675H486.283V669.283L487.924 667.761L493.641 675H496.624L489.694 666.25L496.147 659.727H493.244L486.562 666.528H486.283V654.636H483.937V675ZM508.792 668.756C508.792 671.619 506.605 672.932 504.855 672.932C502.906 672.932 501.514 671.5 501.514 669.273V659.727H499.167V669.432C499.167 673.33 501.235 675.199 504.099 675.199C506.406 675.199 507.917 673.966 508.633 672.415H508.792V675H511.139V659.727H508.792V668.756ZM521.641 675.318C525.778 675.318 528.562 672.176 528.562 667.443C528.562 662.67 525.778 659.528 521.641 659.528C517.505 659.528 514.721 662.67 514.721 667.443C514.721 672.176 517.505 675.318 521.641 675.318ZM521.641 673.21C518.499 673.21 517.067 670.506 517.067 667.443C517.067 664.381 518.499 661.636 521.641 661.636C524.783 661.636 526.215 664.381 526.215 667.443C526.215 670.506 524.783 673.21 521.641 673.21ZM538.786 659.727H535.525V656.068H533.178V659.727H530.871V661.716H533.178V671.261C533.178 673.926 535.326 675.199 537.314 675.199C538.189 675.199 538.746 675.04 539.064 674.92L538.587 672.812C538.388 672.852 538.07 672.932 537.553 672.932C536.519 672.932 535.525 672.614 535.525 670.625V661.716H538.786V659.727ZM546.81 675.358C549.475 675.358 550.867 673.926 551.344 672.932H551.463V675H553.81V664.938C553.81 660.085 550.111 659.528 548.162 659.528C545.855 659.528 543.23 660.324 542.037 663.108L544.265 663.903C544.782 662.79 546.005 661.597 548.242 661.597C550.4 661.597 551.463 662.74 551.463 664.699V664.778C551.463 665.912 550.31 665.812 547.526 666.17C544.692 666.538 541.6 667.165 541.6 670.665C541.6 673.648 543.907 675.358 546.81 675.358ZM547.168 673.25C545.299 673.25 543.946 672.415 543.946 670.784C543.946 668.994 545.577 668.438 547.407 668.199C548.401 668.08 551.066 667.801 551.463 667.324V669.472C551.463 671.381 549.952 673.25 547.168 673.25ZM571.735 675.318C574.678 675.318 575.673 673.489 576.19 672.653H576.468V675H578.735V654.636H576.388V662.153H576.19C575.673 661.358 574.758 659.528 571.775 659.528C567.917 659.528 565.252 662.591 565.252 667.403C565.252 672.256 567.917 675.318 571.735 675.318ZM572.053 673.21C569.11 673.21 567.599 670.625 567.599 667.364C567.599 664.142 569.07 661.636 572.053 661.636C574.917 661.636 576.428 663.943 576.428 667.364C576.428 670.824 574.877 673.21 572.053 673.21ZM587.853 675.358C590.518 675.358 591.91 673.926 592.387 672.932H592.506V675H594.853V664.938C594.853 660.085 591.154 659.528 589.205 659.528C586.898 659.528 584.273 660.324 583.08 663.108L585.308 663.903C585.825 662.79 587.048 661.597 589.285 661.597C591.442 661.597 592.506 662.74 592.506 664.699V664.778C592.506 665.912 591.353 665.812 588.569 666.17C585.735 666.538 582.643 667.165 582.643 670.665C582.643 673.648 584.95 675.358 587.853 675.358ZM588.211 673.25C586.342 673.25 584.989 672.415 584.989 670.784C584.989 668.994 586.62 668.438 588.45 668.199C589.444 668.08 592.109 667.801 592.506 667.324V669.472C592.506 671.381 590.995 673.25 588.211 673.25ZM599.136 675H601.483V665.335C601.483 663.267 603.113 661.756 605.341 661.756C605.967 661.756 606.613 661.875 606.772 661.915V659.528C606.504 659.509 605.887 659.489 605.539 659.489C603.71 659.489 602.119 660.523 601.562 662.034H601.403V659.727H599.136V675ZM609.554 675H611.901V659.727H609.554V675ZM610.747 657.182C611.662 657.182 612.418 656.466 612.418 655.591C612.418 654.716 611.662 654 610.747 654C609.832 654 609.077 654.716 609.077 655.591C609.077 656.466 609.832 657.182 610.747 657.182ZM103.466 717H105.932V710.398L108.477 707.534L115.557 717H118.54L109.989 705.824L118.54 696.636H115.318L106.17 706.739H105.932V696.636H103.466V717ZM126.696 717.318C129.798 717.318 132.065 715.767 132.781 713.46L130.514 712.824C129.917 714.415 128.535 715.21 126.696 715.21C123.941 715.21 122.042 713.43 121.933 710.159H133.02V709.165C133.02 703.477 129.639 701.528 126.457 701.528C122.321 701.528 119.576 704.79 119.576 709.483C119.576 714.176 122.281 717.318 126.696 717.318ZM121.933 708.131C122.092 705.754 123.772 703.636 126.457 703.636C129.002 703.636 130.633 705.545 130.633 708.131H121.933ZM136.589 717H138.936V707.455C138.936 705.217 140.566 703.636 142.396 703.636C144.176 703.636 145.419 704.8 145.419 706.54V717H147.805V707.057C147.805 705.088 149.038 703.636 151.186 703.636C152.856 703.636 154.288 704.521 154.288 706.778V717H156.635V706.778C156.635 703.189 154.706 701.528 151.981 701.528C149.794 701.528 148.193 702.533 147.407 704.114H147.248C146.493 702.483 145.16 701.528 143.152 701.528C141.163 701.528 139.691 702.483 139.055 704.114H138.856V701.727H136.589V717ZM167.328 717.318C170.431 717.318 172.698 715.767 173.414 713.46L171.147 712.824C170.55 714.415 169.168 715.21 167.328 715.21C164.574 715.21 162.675 713.43 162.566 710.159H173.652V709.165C173.652 703.477 170.272 701.528 167.09 701.528C162.953 701.528 160.209 704.79 160.209 709.483C160.209 714.176 162.914 717.318 167.328 717.318ZM162.566 708.131C162.725 705.754 164.405 703.636 167.09 703.636C169.635 703.636 171.266 705.545 171.266 708.131H162.566ZM179.569 707.812C179.569 705.148 181.219 703.636 183.466 703.636C185.644 703.636 186.966 705.058 186.966 707.455V717H189.313V707.295C189.313 703.398 187.235 701.528 184.142 701.528C181.836 701.528 180.404 702.562 179.688 704.114H179.489V701.727H177.222V717H179.569V707.812ZM199.368 717.318C202.311 717.318 203.305 715.489 203.822 714.653H204.101V717H206.368V696.636H204.021V704.153H203.822C203.305 703.358 202.391 701.528 199.408 701.528C195.55 701.528 192.885 704.591 192.885 709.403C192.885 714.256 195.55 717.318 199.368 717.318ZM199.686 715.21C196.743 715.21 195.232 712.625 195.232 709.364C195.232 706.142 196.703 703.636 199.686 703.636C202.55 703.636 204.061 705.943 204.061 709.364C204.061 712.824 202.51 715.21 199.686 715.21ZM210.991 717H213.338V701.727H210.991V717ZM212.185 699.182C213.099 699.182 213.855 698.466 213.855 697.591C213.855 696.716 213.099 696 212.185 696C211.27 696 210.514 696.716 210.514 697.591C210.514 698.466 211.27 699.182 212.185 699.182ZM217.636 717H219.983V711.283L221.623 709.761L227.341 717H230.324L223.393 708.25L229.846 701.727H226.943L220.261 708.528H219.983V696.636H217.636V717ZM233.185 717H235.452V714.653H235.73C236.247 715.489 237.241 717.318 240.185 717.318C244.003 717.318 246.668 714.256 246.668 709.403C246.668 704.591 244.003 701.528 240.145 701.528C237.162 701.528 236.247 703.358 235.73 704.153H235.531V696.636H233.185V717ZM235.491 709.364C235.491 705.943 237.003 703.636 239.866 703.636C242.849 703.636 244.321 706.142 244.321 709.364C244.321 712.625 242.81 715.21 239.866 715.21C237.043 715.21 235.491 712.824 235.491 709.364ZM259.882 710.756C259.882 713.619 257.695 714.932 255.945 714.932C253.996 714.932 252.604 713.5 252.604 711.273V701.727H250.257V711.432C250.257 715.33 252.325 717.199 255.189 717.199C257.496 717.199 259.007 715.966 259.723 714.415H259.882V717H262.229V701.727H259.882V710.756ZM272.294 717.318C275.237 717.318 276.231 715.489 276.748 714.653H277.027V717H279.294V696.636H276.947V704.153H276.748C276.231 703.358 275.316 701.528 272.333 701.528C268.475 701.528 265.811 704.591 265.811 709.403C265.811 714.256 268.475 717.318 272.294 717.318ZM272.612 715.21C269.669 715.21 268.157 712.625 268.157 709.364C268.157 706.142 269.629 703.636 272.612 703.636C275.475 703.636 276.987 705.943 276.987 709.364C276.987 712.824 275.436 715.21 272.612 715.21ZM294.139 707.812C294.139 705.148 295.839 703.636 298.156 703.636C300.363 703.636 301.696 705.028 301.696 707.455V717H304.042V707.295C304.042 703.368 301.954 701.528 298.832 701.528C296.426 701.528 295.054 702.533 294.338 704.114H294.139V696.636H291.792V717H294.139V707.812ZM314.739 717.318C317.841 717.318 320.108 715.767 320.824 713.46L318.557 712.824C317.96 714.415 316.578 715.21 314.739 715.21C311.984 715.21 310.085 713.43 309.976 710.159H321.062V709.165C321.062 703.477 317.682 701.528 314.5 701.528C310.364 701.528 307.619 704.79 307.619 709.483C307.619 714.176 310.324 717.318 314.739 717.318ZM309.976 708.131C310.135 705.754 311.815 703.636 314.5 703.636C317.045 703.636 318.676 705.545 318.676 708.131H309.976ZM326.979 707.812C326.979 705.148 328.679 703.636 330.996 703.636C333.203 703.636 334.536 705.028 334.536 707.455V717H336.882V707.295C336.882 703.368 334.794 701.528 331.672 701.528C329.266 701.528 327.893 702.533 327.178 704.114H326.979V696.636H324.632V717H326.979V707.812ZM347.578 717.318C350.681 717.318 352.948 715.767 353.664 713.46L351.397 712.824C350.8 714.415 349.418 715.21 347.578 715.21C344.824 715.21 342.925 713.43 342.816 710.159H353.902V709.165C353.902 703.477 350.522 701.528 347.34 701.528C343.203 701.528 340.459 704.79 340.459 709.483C340.459 714.176 343.164 717.318 347.578 717.318ZM342.816 708.131C342.975 705.754 344.655 703.636 347.34 703.636C349.885 703.636 351.516 705.545 351.516 708.131H342.816ZM357.631 710.955H359.779C359.749 709.224 360.534 708.528 361.608 708.528C362.314 708.528 362.782 708.837 363.756 709.682C365.208 710.945 366.182 711.511 367.534 711.511C369.563 711.511 371.532 710.239 371.472 706.938H369.324C369.354 708.518 368.628 709.364 367.495 709.364C366.789 709.364 366.321 709.055 365.347 708.21C363.895 706.947 362.921 706.381 361.569 706.381C359.54 706.381 357.571 707.653 357.631 710.955Z" fill="white"/>
<path d="M110.371 572.818H108.537V579.759H108.447L103.655 572.818H102.004V583H103.849V576.065H103.933L108.731 583H110.371V572.818ZM115.789 583L116.629 580.489H120.457L121.302 583H123.271L119.681 572.818H117.405L113.82 583H115.789ZM117.126 579.008L118.503 574.906H118.583L119.96 579.008H117.126ZM126.712 572.818V583H128.482V575.99H128.576L131.39 582.97H132.713L135.527 576.005H135.621V583H137.391V572.818H135.134L132.111 580.196H131.992L128.969 572.818H126.712ZM142.807 583L143.647 580.489H147.475L148.321 583H150.289L146.7 572.818H144.423L140.838 583H142.807ZM144.144 579.008L145.522 574.906H145.601L146.978 579.008H144.144ZM162.098 572.818H160.263V579.759H160.174L155.381 572.818H153.73V583H155.575V576.065H155.659L160.457 583H162.098V572.818ZM165.511 572.818L169.215 579.202V583H171.055V579.202L174.759 572.818H172.675L170.185 577.322H170.085L167.594 572.818H165.511ZM178.433 583L179.273 580.489H183.102L183.947 583H185.916L182.326 572.818H180.049L176.465 583H178.433ZM179.771 579.008L181.148 574.906H181.227L182.604 579.008H179.771ZM193.374 572.818V579.977C193.369 581.051 192.872 581.623 191.987 581.623C191.161 581.623 190.609 581.121 190.595 580.295H188.76C188.76 582.175 190.132 583.139 191.917 583.139C193.881 583.139 195.198 581.946 195.203 579.977V572.818H193.374ZM205.723 572.818V579.316C205.723 580.594 204.833 581.509 203.436 581.509C202.034 581.509 201.149 580.594 201.149 579.316V572.818H199.304V579.47C199.304 581.658 200.945 583.154 203.436 583.154C205.916 583.154 207.567 581.658 207.567 579.47V572.818H205.723ZM218.493 576.07H220.372C220.059 574.071 218.329 572.679 216.077 572.679C213.412 572.679 211.413 574.638 211.413 577.919C211.413 581.141 213.322 583.139 216.131 583.139C218.652 583.139 220.457 581.518 220.457 578.893V577.67H216.325V579.112H218.672C218.642 580.564 217.673 581.484 216.141 581.484C214.436 581.484 213.268 580.206 213.268 577.899C213.268 575.607 214.456 574.335 216.102 574.335C217.33 574.335 218.165 574.991 218.493 576.07ZM225.333 583L226.173 580.489H230.002L230.847 583H232.816L229.226 572.818H226.949L223.365 583H225.333ZM226.671 579.008L228.048 574.906H228.127L229.504 579.008H226.671ZM236.257 583H240.378C242.71 583 243.853 581.812 243.853 580.226C243.853 578.685 242.759 577.78 241.676 577.725V577.626C242.67 577.392 243.455 576.696 243.455 575.458C243.455 573.942 242.362 572.818 240.154 572.818H236.257V583ZM238.101 581.459V578.476H240.134C241.273 578.476 241.979 579.172 241.979 580.082C241.979 580.892 241.422 581.459 240.085 581.459H238.101ZM238.101 577.148V574.339H239.965C241.049 574.339 241.611 574.911 241.611 575.697C241.611 576.592 240.885 577.148 239.926 577.148H238.101ZM247.558 583H254.22V581.454H249.402V578.675H253.837V577.129H249.402V574.364H254.18V572.818H247.558V583ZM258.162 583H264.491V581.454H260.006V572.818H258.162V583ZM269.882 583L270.722 580.489H274.55L275.395 583H277.364L273.774 572.818H271.497L267.913 583H269.882ZM271.219 579.008L272.596 574.906H272.676L274.053 579.008H271.219ZM284.822 572.818V579.977C284.817 581.051 284.32 581.623 283.435 581.623C282.61 581.623 282.058 581.121 282.043 580.295H280.208C280.208 582.175 281.581 583.139 283.365 583.139C285.329 583.139 286.647 581.946 286.652 579.977V572.818H284.822ZM292.06 583L292.9 580.489H296.729L297.574 583H299.542L295.953 572.818H293.676L290.091 583H292.06ZM293.398 579.008L294.775 574.906H294.854L296.231 579.008H293.398ZM302.984 583H304.828V579.271H306.707L308.706 583H310.764L308.562 578.963C309.76 578.481 310.391 577.457 310.391 576.075C310.391 574.131 309.138 572.818 306.802 572.818H302.984V583ZM304.828 577.74V574.359H306.518C307.895 574.359 308.512 574.991 308.512 576.075C308.512 577.158 307.895 577.74 306.528 577.74H304.828ZM315.218 583.109C315.805 583.109 316.307 582.622 316.312 582.016C316.307 581.419 315.805 580.932 315.218 580.932C314.612 580.932 314.119 581.419 314.124 582.016C314.119 582.622 314.612 583.109 315.218 583.109ZM322.194 572.818H320.35V583H322.194V572.818ZM335.389 577.909C335.389 574.618 333.381 572.679 330.711 572.679C328.036 572.679 326.033 574.618 326.033 577.909C326.033 581.195 328.036 583.139 330.711 583.139C333.381 583.139 335.389 581.2 335.389 577.909ZM333.535 577.909C333.535 580.226 332.372 581.484 330.711 581.484C329.056 581.484 327.887 580.226 327.887 577.909C327.887 575.592 329.056 574.335 330.711 574.335C332.372 574.335 333.535 575.592 333.535 577.909Z" fill="white" fill-opacity="0.6"/>
</g>
<defs>
<filter id="filter0_f_2_30" x="18" y="264" width="64" height="64" filterUnits="userSpaceOnUse" color-interpolation-filters="sRGB">
<feFlood flood-opacity="0" result="BackgroundImageFix"/>
<feBlend mode="normal" in="SourceGraphic" in2="BackgroundImageFix" result="shape"/>
<feGaussianBlur stdDeviation="4" result="effect1_foregroundBlur_2_30"/>
</filter>
<filter id="filter1_f_2_30" x="623" y="380" width="62" height="62" filterUnits="userSpaceOnUse" color-interpolation-filters="sRGB">
<feFlood flood-opacity="0" result="BackgroundImageFix"/>
<feBlend mode="normal" in="SourceGraphic" in2="BackgroundImageFix" result="shape"/>
<feGaussianBlur stdDeviation="4" result="effect1_foregroundBlur_2_30"/>
</filter>
<filter id="filter2_f_2_30" x="698" y="452" width="53" height="53" filterUnits="userSpaceOnUse" color-interpolation-filters="sRGB">
<feFlood flood-opacity="0" result="BackgroundImageFix"/>
<feBlend mode="normal" in="SourceGraphic" in2="BackgroundImageFix" result="shape"/>
<feGaussianBlur stdDeviation="4" result="effect1_foregroundBlur_2_30"/>
</filter>
<filter id="filter3_f_2_30" x="478" y="172" width="44" height="44" filterUnits="userSpaceOnUse" color-interpolation-filters="sRGB">
<feFlood flood-opacity="0" result="BackgroundImageFix"/>
<feBlend mode="normal" in="SourceGraphic" in2="BackgroundImageFix" result="shape"/>
<feGaussianBlur stdDeviation="4" result="effect1_foregroundBlur_2_30"/>
</filter>
<filter id="filter4_f_2_30" x="673" y="301" width="38" height="38" filterUnits="userSpaceOnUse" color-interpolation-filters="sRGB">
<feFlood flood-opacity="0" result="BackgroundImageFix"/>
<feBlend mode="normal" in="SourceGraphic" in2="BackgroundImageFix" result="shape"/>
<feGaussianBlur stdDeviation="4" result="effect1_foregroundBlur_2_30"/>
</filter>
<filter id="filter5_f_2_30" x="-20" y="380" width="62" height="62" filterUnits="userSpaceOnUse" color-interpolation-filters="sRGB">
<feFlood flood-opacity="0" result="BackgroundImageFix"/>
<feBlend mode="normal" in="SourceGraphic" in2="BackgroundImageFix" result="shape"/>
<feGaussianBlur stdDeviation="4" result="effect1_foregroundBlur_2_30"/>
</filter>
<linearGradient id="paint0_linear_2_30" x1="360" y1="0" x2="360" y2="900" gradientUnits="userSpaceOnUse">
<stop stop-color="#3730A3"/>
<stop offset="1" stop-color="#312E81"/>
</linearGradient>
<linearGradient id="paint1_linear_2_30" x1="160" y1="418" x2="293.5" y2="881" gradientUnits="userSpaceOnUse">
<stop stop-color="white" stop-opacity="0.4"/>
<stop offset="1" stop-color="white" stop-opacity="0"/>
</linearGradient>
<linearGradient id="paint2_linear_2_30" x1="32.9643" y1="206.25" x2="426.332" y2="681.764" gradientUnits="userSpaceOnUse">
<stop stop-color="white"/>
<stop offset="1" stop-color="white" stop-opacity="0"/>
</linearGradient>
<linearGradient id="paint3_linear_2_30" x1="-54.3571" y1="90.5" x2="404.221" y2="644.843" gradientUnits="userSpaceOnUse">
<stop stop-color="white"/>
<stop offset="1" stop-color="white" stop-opacity="0"/>
</linearGradient>
<linearGradient id="paint4_linear_2_30" x1="407" y1="539" x2="701.5" y2="895" gradientUnits="userSpaceOnUse">
<stop stop-color="white"/>
<stop offset="1" stop-color="white" stop-opacity="0"/>
</linearGradient>
<linearGradient id="paint5_linear_2_30" x1="208.937" y1="296.004" x2="208.937" y2="378.888" gradientUnits="userSpaceOnUse">
<stop stop-color="#4F46E5"/>
<stop offset="1" stop-color="#4F46E5" stop-opacity="0"/>
</linearGradient>
<linearGradient id="paint6_linear_2_30" x1="282.909" y1="410.972" x2="282.909" y2="476.032" gradientUnits="userSpaceOnUse">
<stop stop-color="#4F46E5"/>
<stop offset="1" stop-color="#4F46E5" stop-opacity="0"/>
</linearGradient>
<linearGradient id="paint7_linear_2_30" x1="130.954" y1="410.972" x2="130.954" y2="460.881" gradientUnits="userSpaceOnUse">
<stop stop-color="#4F46E5"/>
<stop offset="1" stop-color="#4F46E5" stop-opacity="0"/>
</linearGradient>
<linearGradient id="paint8_linear_2_30" x1="152.344" y1="201.533" x2="152.344" y2="263.919" gradientUnits="userSpaceOnUse">
<stop stop-color="#4F46E5"/>
<stop offset="1" stop-color="#4F46E5" stop-opacity="0"/>
</linearGradient>
<linearGradient id="paint9_linear_2_30" x1="50" y1="272" x2="50" y2="320" gradientUnits="userSpaceOnUse">
<stop stop-color="#6B63EB"/>
<stop offset="1" stop-color="#4F46E5" stop-opacity="0"/>
</linearGradient>
<linearGradient id="paint10_linear_2_30" x1="687.5" y1="187" x2="687.5" y2="252" gradientUnits="userSpaceOnUse">
<stop stop-color="#4F46E5"/>
<stop offset="1" stop-color="#4F46E5" stop-opacity="0"/>
</linearGradient>
<linearGradient id="paint11_linear_2_30" x1="654" y1="388" x2="654" y2="434" gradientUnits="userSpaceOnUse">
<stop stop-color="#6B63EB"/>
<stop offset="1" stop-color="#4F46E5" stop-opacity="0"/>
</linearGradient>
<linearGradient id="paint12_linear_2_30" x1="724.5" y1="460" x2="724.5" y2="497" gradientUnits="userSpaceOnUse">
<stop stop-color="#6B63EB"/>
<stop offset="1" stop-color="#4F46E5" stop-opacity="0"/>
</linearGradient>
<linearGradient id="paint13_linear_2_30" x1="500" y1="180" x2="500" y2="208" gradientUnits="userSpaceOnUse">
<stop stop-color="#6B63EB"/>
<stop offset="1" stop-color="#4F46E5" stop-opacity="0"/>
</linearGradient>
<linearGradient id="paint14_linear_2_30" x1="692" y1="309" x2="692" y2="331" gradientUnits="userSpaceOnUse">
<stop stop-color="#6B63EB"/>
<stop offset="1" stop-color="#4F46E5" stop-opacity="0"/>
</linearGradient>
<linearGradient id="paint15_linear_2_30" x1="11" y1="388" x2="11" y2="434" gradientUnits="userSpaceOnUse">
<stop stop-color="#6B63EB"/>
<stop offset="1" stop-color="#4F46E5" stop-opacity="0"/>
</linearGradient>
<linearGradient id="paint16_linear_2_30" x1="545.821" y1="420.775" x2="545.821" y2="469.793" gradientUnits="userSpaceOnUse">
<stop stop-color="#4F46E5"/>
<stop offset="1" stop-color="#4F46E5" stop-opacity="0"/>
</linearGradient>
<linearGradient id="paint17_linear_2_30" x1="368.467" y1="197.968" x2="368.467" y2="320.067" gradientUnits="userSpaceOnUse">
<stop stop-color="#4F46E5"/>
<stop offset="1" stop-color="#4F46E5" stop-opacity="0"/>
</linearGradient>
<linearGradient id="paint18_linear_2_30" x1="414.811" y1="352.151" x2="414.811" y2="443.947" gradientUnits="userSpaceOnUse">
<stop stop-color="#4F46E5"/>
<stop offset="1" stop-color="#4F46E5" stop-opacity="0"/>
</linearGradient>
<linearGradient id="paint19_linear_2_30" x1="556.961" y1="259.463" x2="556.961" y2="373.54" gradientUnits="userSpaceOnUse">
<stop stop-color="#4F46E5"/>
<stop offset="1" stop-color="#4F46E5" stop-opacity="0"/>
</linearGradient>
<linearGradient id="paint20_linear_2_30" x1="519.332" y1="308.766" x2="580.829" y2="344.316" gradientUnits="userSpaceOnUse">
<stop stop-color="white"/>
<stop offset="1" stop-color="white" stop-opacity="0.5"/>
</linearGradient>
<clipPath id="clip0_2_30">
<rect width="720" height="900" fill="white"/>
</clipPath>
<clipPath id="clip1_2_30">
<rect width="55.2561" height="49.7305" fill="white" transform="translate(181.309 312.58)"/>
</clipPath>
<clipPath id="clip2_2_30">
<rect width="39.214" height="34.7579" fill="white" transform="translate(263.747 426.123)"/>
</clipPath>
<clipPath id="clip3_2_30">
<rect width="26.7368" height="31.193" fill="white" transform="translate(117.586 420.775)"/>
</clipPath>
<clipPath id="clip4_2_30">
<rect width="69.5158" height="79.3193" fill="white" transform="translate(334.154 219.358)"/>
</clipPath>
<clipPath id="clip5_2_30">
<rect width="49.9088" height="51.6912" fill="white" transform="translate(390.302 371.758)"/>
</clipPath>
<clipPath id="clip6_2_30">
<rect width="71.2982" height="42.7789" fill="white" transform="translate(521.312 295.112)"/>
</clipPath>
</defs>
</svg>
